<svg width="128" height="128" viewBox="0 0 128 128" fill="none" xmlns="http://www.w3.org/2000/svg">
  <!-- רקע עגול -->
  <circle cx="64" cy="64" r="60" fill="#0077B5" stroke="#005885" stroke-width="4"/>
  
  <!-- אייקון לינקדאין -->
  <path d="M32 48h8v32h-8V48zm4-16c2.2 0 4 1.8 4 4s-1.8 4-4 4-4-1.8-4-4 1.8-4 4-4zm20 16h6l-2 8h8l-2-8h6v24h-8V56h-8v24h-8V56h-6l-2 8h8l-2-8h6v-8z" fill="white"/>
  
  <!-- גרף סטטיסטיקות -->
  <g transform="translate(64, 64)">
    <!-- עמודות הגרף -->
    <rect x="-20" y="-15" width="8" height="30" fill="#4CAF50" opacity="0.8"/>
    <rect x="-8" y="-25" width="8" height="40" fill="#FF9800" opacity="0.8"/>
    <rect x="4" y="-35" width="8" height="50" fill="#F44336" opacity="0.8"/>
    <rect x="16" y="-20" width="8" height="35" fill="#2196F3" opacity="0.8"/>
    
    <!-- קו הגרף -->
    <path d="M-20 -15 L-8 -25 L4 -35 L16 -20" stroke="white" stroke-width="3" fill="none" stroke-linecap="round"/>
    
    <!-- נקודות על הגרף -->
    <circle cx="-20" cy="-15" r="3" fill="white"/>
    <circle cx="-8" cy="-25" r="3" fill="white"/>
    <circle cx="4" cy="-35" r="3" fill="white"/>
    <circle cx="16" cy="-20" r="3" fill="white"/>
  </g>
  
  <!-- טקסט קטן -->
  <text x="64" y="110" text-anchor="middle" fill="white" font-family="Arial, sans-serif" font-size="10" font-weight="bold">STATS</text>
</svg> 