<svg width="32" height="32" viewBox="0 0 32 32" fill="none" xmlns="http://www.w3.org/2000/svg">
  <!-- רקע עגול -->
  <circle cx="16" cy="16" r="15" fill="#0077B5" stroke="#005885" stroke-width="1"/>
  
  <!-- אייקון לינקדאין -->
  <path d="M8 12h2v8h-2V12zm1-4c0.6 0 1 0.4 1 1s-0.4 1-1 1-1-0.4-1-1 0.4-1 1-1zm5 4h1.5l-0.5 2h2l-0.5-2h1.5v6h-2V16h-2v6h-2V16h-1.5l-0.5 2h2l-0.5-2h1.5v-2z" fill="white"/>
  
  <!-- גרף סטטיסטיקות -->
  <g transform="translate(16, 16)">
    <!-- עמודות הגרף -->
    <rect x="-5" y="-4" width="2" height="8" fill="#4CAF50" opacity="0.8"/>
    <rect x="-2" y="-6" width="2" height="10" fill="#FF9800" opacity="0.8"/>
    <rect x="1" y="-9" width="2" height="13" fill="#F44336" opacity="0.8"/>
    <rect x="4" y="-5" width="2" height="9" fill="#2196F3" opacity="0.8"/>
    
    <!-- קו הגרף -->
    <path d="M-5 -4 L-2 -6 L1 -9 L4 -5" stroke="white" stroke-width="1" fill="none" stroke-linecap="round"/>
    
    <!-- נקודות על הגרף -->
    <circle cx="-5" cy="-4" r="1" fill="white"/>
    <circle cx="-2" cy="-6" r="1" fill="white"/>
    <circle cx="1" cy="-9" r="1" fill="white"/>
    <circle cx="4" cy="-5" r="1" fill="white"/>
  </g>
</svg> 