<svg width="64" height="64" viewBox="0 0 64 64" fill="none" xmlns="http://www.w3.org/2000/svg">
  <!-- רקע עגול -->
  <circle cx="32" cy="32" r="30" fill="#0077B5" stroke="#005885" stroke-width="2"/>
  
  <!-- אייקון לינקדאין -->
  <path d="M16 24h4v16h-4V24zm2-8c1.1 0 2 0.9 2 2s-0.9 2-2 2-2-0.9-2-2 0.9-2 2-2zm10 8h3l-1 4h4l-1-4h3v12h-4V32h-4v12h-4V32h-3l-1 4h4l-1-4h3v-4z" fill="white"/>
  
  <!-- גרף סטטיסטיקות -->
  <g transform="translate(32, 32)">
    <!-- עמודות הגרף -->
    <rect x="-10" y="-8" width="4" height="16" fill="#4CAF50" opacity="0.8"/>
    <rect x="-4" y="-12" width="4" height="20" fill="#FF9800" opacity="0.8"/>
    <rect x="2" y="-18" width="4" height="26" fill="#F44336" opacity="0.8"/>
    <rect x="8" y="-10" width="4" height="18" fill="#2196F3" opacity="0.8"/>
    
    <!-- קו הגרף -->
    <path d="M-10 -8 L-4 -12 L2 -18 L8 -10" stroke="white" stroke-width="2" fill="none" stroke-linecap="round"/>
    
    <!-- נקודות על הגרף -->
    <circle cx="-10" cy="-8" r="2" fill="white"/>
    <circle cx="-4" cy="-12" r="2" fill="white"/>
    <circle cx="2" cy="-18" r="2" fill="white"/>
    <circle cx="8" cy="-10" r="2" fill="white"/>
  </g>
</svg> 